<svg width="17" height="19" viewBox="0 0 17 19" fill="none" xmlns="http://www.w3.org/2000/svg">
<path d="M7.97076 18.1733C7.77172 17.9554 7.6675 17.6782 7.65809 17.3416C7.6494 17.005 7.74458 16.7277 7.94362 16.5099L13.2633 10.6881H1.13113C0.823525 10.6881 0.565501 10.5741 0.357055 10.3459C0.149332 10.1186 0.0454712 9.83663 0.0454712 9.5C0.0454712 9.16337 0.149332 8.88099 0.357055 8.65287C0.565501 8.42554 0.823525 8.31188 1.13113 8.31188H13.2633L7.94362 2.4901C7.74458 2.27228 7.6494 1.99505 7.65809 1.65842C7.6675 1.32178 7.77172 1.04455 7.97076 0.826732C8.1698 0.60891 8.42312 0.5 8.73072 0.5C9.03832 0.5 9.29164 0.60891 9.49068 0.826732L16.656 8.66832C16.7646 8.76733 16.8417 8.89089 16.8873 9.03901C16.9321 9.18792 16.9546 9.34158 16.9546 9.5C16.9546 9.65842 16.9321 9.80693 16.8873 9.94554C16.8417 10.0842 16.7646 10.2129 16.656 10.3317L9.49068 18.1733C9.29164 18.3911 9.03832 18.5 8.73072 18.5C8.42312 18.5 8.1698 18.3911 7.97076 18.1733Z" fill="#555555"/>
</svg>
