<svg width="120" height="36" viewBox="0 0 120 36" fill="none" xmlns="http://www.w3.org/2000/svg">
<path d="M17.9955 0C8.05707 0 0 8.05882 0 17.9997C0 27.9416 8.05707 36 17.9955 36C27.9344 36 35.991 27.9416 35.991 17.9997C35.991 8.05945 27.9348 0.00085911 17.9953 0.00085911L17.9955 0ZM26.2481 25.9607C25.9249 26.491 25.2343 26.6571 24.7059 26.334C20.4801 23.7507 15.1611 23.1671 8.89706 24.5984C8.29344 24.7368 7.69175 24.3583 7.55423 23.7547C7.41605 23.151 7.79275 22.5491 8.39788 22.4116C15.2529 20.844 21.1329 21.5187 25.8762 24.4178C26.4048 24.7424 26.5724 25.4324 26.2479 25.9611L26.2481 25.9607ZM28.4507 21.0602C28.0437 21.7208 27.1803 21.928 26.5208 21.5224C21.6847 18.5489 14.3103 17.6876 8.58892 19.4247C7.8469 19.6489 7.0632 19.2306 6.838 18.4897C6.61451 17.7475 7.03291 16.9652 7.77363 16.7395C14.3091 14.756 22.4336 15.7168 27.9885 19.1311C28.6482 19.5374 28.8567 20.4014 28.4505 21.0604L28.4507 21.0602ZM28.6398 15.9566C22.8391 12.5109 13.2709 12.1941 7.73343 13.8751C6.84422 14.1449 5.90386 13.6428 5.63439 12.7534C5.36492 11.8635 5.86647 10.9236 6.75633 10.6532C13.113 8.72299 23.6802 9.09591 30.3577 13.0609C31.1575 13.5357 31.4199 14.569 30.9458 15.3679C30.4731 16.1679 29.4373 16.4317 28.6401 15.9566H28.6398ZM48.9598 16.617C45.8527 15.8758 45.2996 15.3557 45.2996 14.2627C45.2996 13.2301 46.2715 12.5352 47.7169 12.5352C49.118 12.5352 50.5072 13.0629 51.9637 14.1492C52.0078 14.1821 52.063 14.1952 52.1174 14.1866C52.1718 14.1784 52.2199 14.1486 52.2517 14.1036L53.7688 11.9645C53.8312 11.8764 53.8142 11.755 53.7302 11.6877C51.9966 10.2964 50.0446 9.61994 47.7629 9.61994C44.408 9.61994 42.0647 11.6337 42.0647 14.515C42.0647 17.6048 44.0861 18.6989 47.5794 19.5434C50.5526 20.2284 51.0544 20.8023 51.0544 21.8282C51.0544 22.965 50.0396 23.6718 48.4067 23.6718C46.593 23.6718 45.1137 23.0607 43.4589 21.6272C43.4178 21.5918 43.3615 21.5757 43.3095 21.5787C43.2547 21.5832 43.2046 21.6086 43.1698 21.6505L41.4688 23.6754C41.3974 23.7595 41.4065 23.885 41.489 23.9577C43.4144 25.677 45.7825 26.5851 48.338 26.5851C51.953 26.5851 54.2891 24.6094 54.2891 21.5514C54.2955 18.9699 52.7505 17.5406 48.9663 16.6198L48.9598 16.617ZM62.4678 13.5519C60.9008 13.5519 59.6155 14.1692 58.5557 15.4341V14.0103C58.5557 13.8979 58.4646 13.8064 58.3524 13.8064H55.5703C55.4579 13.8064 55.367 13.8979 55.367 14.0103V29.8305C55.367 29.9429 55.4579 30.0345 55.5703 30.0345H58.3524C58.4646 30.0345 58.5557 29.9429 58.5557 29.8305V24.8368C59.6158 26.0267 60.9012 26.6081 62.4678 26.6081C65.3793 26.6081 68.3268 24.3663 68.3268 20.0807C68.3311 15.7942 65.3828 13.5517 62.471 13.5517L62.4678 13.5519ZM65.0916 20.0807C65.0916 22.2631 63.7477 23.7859 61.8233 23.7859C59.9209 23.7859 58.4859 22.1938 58.4859 20.0807C58.4859 17.9679 59.9209 16.3756 61.8233 16.3756C63.7165 16.3754 65.0918 17.9333 65.0918 20.0805L65.0916 20.0807ZM75.8812 13.5519C72.1316 13.5519 69.194 16.4398 69.194 20.1274C69.194 23.7747 72.1114 26.6324 75.8352 26.6324C79.5982 26.6324 82.5447 23.7541 82.5447 20.0807C82.5447 16.4201 79.6179 13.5523 75.881 13.5523L75.8812 13.5519ZM75.8812 23.8076C73.8868 23.8076 72.3832 22.2048 72.3832 20.0797C72.3832 17.9455 73.8348 16.3968 75.8352 16.3968C77.8425 16.3968 79.3562 17.9997 79.3562 20.1263C79.3562 22.26 77.8949 23.8076 75.8814 23.8076H75.8812ZM90.5517 13.8064H87.4902V10.6755C87.4902 10.5633 87.3995 10.4718 87.2871 10.4718H84.5054C84.3928 10.4718 84.3014 10.5633 84.3014 10.6755V13.8064H82.9637C82.8518 13.8064 82.7611 13.8979 82.7611 14.0103V16.402C82.7611 16.5142 82.8518 16.606 82.9637 16.606H84.3014V22.7944C84.3014 25.2952 85.5459 26.5632 88.0001 26.5632C88.9981 26.5632 89.826 26.357 90.6063 25.9145C90.6697 25.879 90.709 25.8107 90.709 25.738V23.4605C90.709 23.3902 90.6725 23.3238 90.6123 23.287C90.5517 23.249 90.4763 23.2471 90.4142 23.2778C89.8782 23.5476 89.3601 23.672 88.781 23.672C87.8884 23.672 87.4902 23.2666 87.4902 22.3581V16.6071H90.5517C90.6641 16.6071 90.7546 16.5155 90.7546 16.4031V14.0117C90.7589 13.8992 90.6686 13.8077 90.5547 13.8077L90.5517 13.8064ZM101.219 13.8186V13.4341C101.219 12.3028 101.652 11.7984 102.625 11.7984C103.205 11.7984 103.671 11.9136 104.193 12.0877C104.257 12.1079 104.324 12.0978 104.376 12.0593C104.43 12.0208 104.46 11.9591 104.46 11.8938V9.54879C104.46 9.45915 104.403 9.37984 104.316 9.3534C103.765 9.18939 103.06 9.02109 102.004 9.02109C99.4342 9.02109 98.0759 10.4685 98.0759 13.2054V13.7943H96.7393C96.6271 13.7943 96.5351 13.8859 96.5351 13.9981V16.402C96.5351 16.5142 96.6271 16.606 96.7393 16.606H98.0759V26.1513C98.0759 26.2637 98.1666 26.3553 98.2787 26.3553H101.061C101.173 26.3553 101.265 26.2637 101.265 26.1513V16.6066H103.862L107.842 26.1496C107.39 27.1523 106.946 27.3518 106.339 27.3518C105.849 27.3518 105.333 27.2054 104.805 26.9165C104.756 26.8892 104.697 26.8847 104.643 26.9013C104.59 26.92 104.545 26.9595 104.523 27.0111L103.58 29.0804C103.535 29.1782 103.573 29.2929 103.668 29.3437C104.652 29.8769 105.541 30.1045 106.639 30.1045C108.693 30.1045 109.829 29.1474 110.83 26.5724L115.656 14.0972C115.681 14.0344 115.673 13.9635 115.635 13.9078C115.597 13.8526 115.535 13.8193 115.467 13.8193H112.571C112.484 13.8193 112.407 13.8745 112.378 13.956L109.411 22.4328L106.162 13.9504C106.132 13.8715 106.056 13.8192 105.972 13.8192H101.218L101.219 13.8186ZM95.0343 13.8064H92.2521C92.1397 13.8064 92.0482 13.8979 92.0482 14.0103V26.1513C92.0482 26.2637 92.1397 26.3553 92.2521 26.3553H95.0343C95.1465 26.3553 95.2382 26.2637 95.2382 26.1513V14.0112C95.2383 13.9844 95.2331 13.9578 95.2228 13.933C95.2126 13.9082 95.1975 13.8857 95.1786 13.8667C95.1596 13.8478 95.1371 13.8328 95.1123 13.8226C95.0875 13.8123 95.0609 13.8071 95.0341 13.8072L95.0343 13.8064ZM93.659 8.27828C92.5569 8.27828 91.6625 9.17071 91.6625 10.2732C91.6625 11.3762 92.5571 12.2698 93.659 12.2698C94.7608 12.2698 95.6543 11.3762 95.6543 10.2732C95.6543 9.17093 94.7603 8.27828 93.6601 8.27828H93.659ZM118.032 17.7099C116.931 17.7099 116.074 16.8254 116.074 15.7514C116.074 14.6773 116.942 13.7827 118.042 13.7827C119.143 13.7827 120 14.667 120 15.7402C120 16.8143 119.132 17.7099 118.032 17.7099H118.032ZM118.043 13.9775C117.04 13.9775 116.281 14.7749 116.281 15.7514C116.281 16.7274 117.034 17.5141 118.032 17.5141C119.035 17.5141 119.795 16.7173 119.795 15.7402C119.795 14.7641 119.041 13.9775 118.043 13.9775H118.043ZM118.477 15.9416L119.03 16.7171H118.563L118.065 16.0057H117.636V16.7171H117.245V14.6614H118.162C118.639 14.6614 118.953 14.9058 118.953 15.3172C118.955 15.6542 118.76 15.8601 118.478 15.9416L118.477 15.9416ZM118.146 15.0141H117.636V15.6643H118.146C118.4 15.6643 118.552 15.5399 118.552 15.3389C118.552 15.1274 118.399 15.0141 118.146 15.0141L118.146 15.0141Z" fill="#3AA855"/>
</svg>
